<svg width="44" height="44" viewBox="0 0 44 44" fill="none" xmlns="http://www.w3.org/2000/svg">
<path d="M22 44C34.1503 44 44 34.1503 44 22C44 9.84974 34.1503 0 22 0C9.84974 0 0 9.84974 0 22C0 34.1503 9.84974 44 22 44Z" fill="#26A17B"/>
<path fill-rule="evenodd" clip-rule="evenodd" d="M24.6428 23.9016V23.8988C24.4916 23.9098 23.712 23.9566 21.9726 23.9566C20.5838 23.9566 19.6062 23.9153 19.2625 23.8988V23.903C13.9165 23.6678 9.92622 22.737 9.92622 21.6232C9.92622 20.5108 13.9165 19.58 19.2625 19.3407V22.9762C19.6117 23.001 20.6127 23.0601 21.996 23.0601C23.6556 23.0601 24.4875 22.9913 24.6428 22.9776V19.3435C29.9778 19.5813 33.9585 20.5122 33.9585 21.6232C33.9585 22.737 29.9778 23.6651 24.6428 23.9016ZM24.6428 18.9653V15.7121H32.0871V10.7511H11.8182V15.7121H19.2625V18.964C13.2125 19.2417 8.6626 20.4407 8.6626 21.8762C8.6626 23.3117 13.2125 24.5093 19.2625 24.7885V35.2137H24.6428V24.7857C30.6832 24.508 35.2221 23.3103 35.2221 21.8762C35.2221 20.4421 30.6832 19.2445 24.6428 18.9653Z" fill="white"/>
</svg>
