<svg width="44" height="34" viewBox="0 0 44 34" fill="none" xmlns="http://www.w3.org/2000/svg">
<path d="M12.3827 25.7576C11.3469 25.7576 10.4089 25.4913 9.56842 24.9586C8.7339 24.42 8.07103 23.6299 7.57979 22.5882C7.09446 21.5406 6.8518 20.2563 6.8518 18.7352C6.8518 17.1727 7.10334 15.8736 7.60642 14.8378C8.1095 13.7962 8.77829 13.0179 9.61281 12.503C10.4532 11.9821 11.3736 11.7217 12.3738 11.7217C13.1373 11.7217 13.7736 11.8519 14.2826 12.1123C14.7975 12.3668 15.2118 12.6864 15.5255 13.0712C15.8451 13.4499 16.0877 13.8228 16.2534 14.1898H16.3688V7.35383H20.1419V25.5356H16.4132V23.3517H16.2534C16.0759 23.7305 15.8243 24.1063 15.4988 24.4792C15.1792 24.8461 14.762 25.1509 14.247 25.3936C13.738 25.6363 13.1166 25.7576 12.3827 25.7576ZM13.5812 22.748C14.1908 22.748 14.7057 22.5823 15.1259 22.2508C15.5521 21.9135 15.8776 21.443 16.1025 20.8393C16.3333 20.2356 16.4487 19.5283 16.4487 18.7175C16.4487 17.9066 16.3363 17.2023 16.1114 16.6045C15.8865 16.0068 15.561 15.5451 15.1348 15.2196C14.7087 14.8941 14.1908 14.7313 13.5812 14.7313C12.9598 14.7313 12.436 14.9 12.0098 15.2373C11.5837 15.5747 11.2611 16.0423 11.0421 16.64C10.8232 17.2378 10.7137 17.9303 10.7137 18.7175C10.7137 19.5105 10.8232 20.2119 11.0421 20.8215C11.267 21.4252 11.5896 21.8987 12.0098 22.242C12.436 22.5793 12.9598 22.748 13.5812 22.748ZM23.3224 25.5356V7.35383H27.1044V14.1898H27.2198C27.3855 13.8228 27.6252 13.4499 27.9389 13.0712C28.2585 12.6864 28.6728 12.3668 29.1818 12.1123C29.6967 11.8519 30.3359 11.7217 31.0994 11.7217C32.0937 11.7217 33.0111 11.9821 33.8515 12.503C34.692 13.0179 35.3637 13.7962 35.8668 14.8378C36.3699 15.8736 36.6214 17.1727 36.6214 18.7352C36.6214 20.2563 36.3758 21.5406 35.8846 22.5882C35.3992 23.6299 34.7364 24.42 33.8959 24.9586C33.0614 25.4913 32.1263 25.7576 31.0905 25.7576C30.3566 25.7576 29.7322 25.6363 29.2173 25.3936C28.7083 25.1509 28.291 24.8461 27.9655 24.4792C27.64 24.1063 27.3914 23.7305 27.2198 23.3517H27.0511V25.5356H23.3224ZM27.0245 18.7175C27.0245 19.5283 27.1369 20.2356 27.3618 20.8393C27.5867 21.443 27.9123 21.9135 28.3384 22.2508C28.7645 22.5823 29.2824 22.748 29.892 22.748C30.5075 22.748 31.0284 22.5793 31.4545 22.242C31.8807 21.8987 32.2032 21.4252 32.4222 20.8215C32.6471 20.2119 32.7596 19.5105 32.7596 18.7175C32.7596 17.9303 32.6501 17.2378 32.4311 16.64C32.2121 16.0423 31.8895 15.5747 31.4634 15.2373C31.0373 14.9 30.5135 14.7313 29.892 14.7313C29.2765 14.7313 28.7557 14.8941 28.3295 15.2196C27.9093 15.5451 27.5867 16.0068 27.3618 16.6045C27.1369 17.2023 27.0245 17.9066 27.0245 18.7175Z" fill="url(#paint0_linear_52_736)"/>
<line x1="15.9946" y1="32.2261" x2="27.4894" y2="32.2261" stroke="url(#paint1_linear_52_736)" stroke-width="3" stroke-linecap="square"/>
<line x1="15.9946" y1="1.5" x2="27.4894" y2="1.5" stroke="#BC528C" stroke-width="3" stroke-linecap="square"/>
<defs>
<linearGradient id="paint0_linear_52_736" x1="4.45993" y1="21.0118" x2="40.6969" y2="21.0118" gradientUnits="userSpaceOnUse">
<stop stop-color="#D75071"/>
<stop offset="1" stop-color="#705BDC"/>
</linearGradient>
<linearGradient id="paint1_linear_52_736" x1="13.9371" y1="32.7261" x2="28.4319" y2="32.7261" gradientUnits="userSpaceOnUse">
<stop stop-color="#D75071"/>
<stop offset="1" stop-color="#725AD8"/>
</linearGradient>
</defs>
</svg>
