<?xml version="1.0" encoding="UTF-8"?>
<svg id="Layer_1" data-name="Layer 1" xmlns="http://www.w3.org/2000/svg" xmlns:xlink="http://www.w3.org/1999/xlink" viewBox="0 0 284.43 284.43">
  <defs>
    <style>
      .cls-1 {
        fill: url(#linear-gradient);
      }

      .cls-1, .cls-2, .cls-3 {
        stroke-width: 0px;
      }

      .cls-2 {
        fill: url(#linear-gradient-2);
      }
    </style>
    <linearGradient id="linear-gradient" x1="142.22" y1="226.47" x2="142.22" y2="33.09" gradientUnits="userSpaceOnUse">
      <stop offset="0" stop-color="#00b1ff"/>
      <stop offset="1" stop-color="#001a99"/>
    </linearGradient>
    <linearGradient id="linear-gradient-2" x1="163.24" y1="226.47" x2="163.24" y2="33.09" xlink:href="#linear-gradient"/>
  </defs>
  <circle class="cls-3" cx="142.22" cy="142.22" r="142.22"/>
  <g>
    <path class="cls-1" d="m142.39,183.31l-44.86-36.38c2.01-5.78,5.09-11.05,9.01-15.58l35.76,29,75.29-60.58v-10.61l-38.42,30.92c-10.16-8.75-22.98-13.55-36.51-13.55s-26.84,5.19-36.68,13.72l-39.5-32.04v10.64l33.64,27.29c-3.89,4.53-7.07,9.69-9.36,15.31l-23.4-18.98v94.62h8.27v-77.27l12.45,10.09c-.94,4.07-1.46,8.3-1.46,12.64,0,30.9,25.14,56.03,56.03,56.03,15.54,0,29.98-6.21,40.67-17.49l-6-5.69c-9.11,9.62-21.43,14.91-34.67,14.91-26.34,0-47.77-21.43-47.77-47.77,0-2.28.17-4.53.48-6.73l46.99,38.11,67.31-54.17v77.31h8.27v-94.58l-75.56,60.8Zm.27-68.52c11.02,0,21.49,3.72,29.96,10.56l-30.29,24.37-29.82-24.18c8.23-6.71,18.73-10.75,30.15-10.75Z"/>
    <path class="cls-2" d="m174.06,109.89l2.85-7.31c-5.31-3.12-10.99-5.48-16.87-7.03l4.68-22.8,12.82,13.92-9.95-20.61,25.19-6.85-25.1-.34,1.11-23.7-7.34,22.98-21.4-8.66,17.91,14.15-15.35,14.38,14.95-6.59-4.65,22.64c-6.32-.95-12.79-1-19.21-.11v7.82c14-2.2,28.33.68,40.36,8.11Z"/>
  </g>
</svg>