<svg width="346" height="87" viewBox="0 0 346 87" fill="none" xmlns="http://www.w3.org/2000/svg">
<g filter="url(#filter0_d_52_741)">
<path d="M30.1023 77H4.32102V4.27273H30.3153C37.6307 4.27273 43.928 5.72869 49.2074 8.64062C54.4867 11.5289 58.5469 15.6837 61.3878 21.1051C64.2524 26.5265 65.6847 33.0133 65.6847 40.5653C65.6847 48.1411 64.2524 54.6515 61.3878 60.0966C58.5469 65.5417 54.4631 69.7202 49.1364 72.6321C43.8333 75.544 37.4886 77 30.1023 77ZM19.6974 63.8253H29.4631C34.0085 63.8253 37.8319 63.0204 40.9332 61.4105C44.0582 59.777 46.402 57.2557 47.9645 53.8466C49.5507 50.4138 50.3438 45.9867 50.3438 40.5653C50.3438 35.1913 49.5507 30.7997 47.9645 27.3906C46.402 23.9815 44.0701 21.4721 40.9688 19.8622C37.8674 18.2524 34.044 17.4474 29.4986 17.4474H19.6974V63.8253ZM101.649 78.0653C96.038 78.0653 91.2085 76.929 87.1602 74.6562C83.1355 72.3598 80.0342 69.1165 77.8562 64.9261C75.6781 60.7121 74.5891 55.7287 74.5891 49.9759C74.5891 44.3651 75.6781 39.4408 77.8562 35.2031C80.0342 30.9654 83.1 27.6629 87.0536 25.2955C91.0309 22.928 95.6947 21.7443 101.045 21.7443C104.644 21.7443 107.993 22.3243 111.095 23.4844C114.22 24.6207 116.942 26.3371 119.262 28.6335C121.606 30.9299 123.429 33.8182 124.731 37.2983C126.033 40.7547 126.684 44.803 126.684 49.4432V53.598H80.6261V44.223H112.444C112.444 42.045 111.971 40.1155 111.024 38.4347C110.077 36.7538 108.763 35.4399 107.082 34.4929C105.425 33.5223 103.495 33.0369 101.294 33.0369C98.9973 33.0369 96.9613 33.5696 95.1857 34.6349C93.4338 35.6766 92.0607 37.0852 91.0664 38.8608C90.0721 40.6127 89.5631 42.5658 89.5394 44.7202V53.6335C89.5394 56.3324 90.0366 58.6643 91.0309 60.6293C92.0489 62.5942 93.4812 64.1094 95.3278 65.1747C97.1744 66.2401 99.3642 66.7727 101.897 66.7727C103.578 66.7727 105.117 66.536 106.514 66.0625C107.911 65.589 109.106 64.8788 110.1 63.9318C111.095 62.9848 111.852 61.8248 112.373 60.4517L126.365 61.375C125.654 64.7367 124.199 67.6723 121.997 70.1818C119.819 72.6676 117.002 74.6089 113.545 76.0057C110.112 77.3788 106.147 78.0653 101.649 78.0653ZM117.984 4.27273V12.4759H83.396V4.27273H117.984ZM136.841 77V4.27273H151.968V31.6165H152.43C153.093 30.1487 154.052 28.6572 155.306 27.142C156.585 25.6032 158.242 24.3248 160.278 23.3068C162.338 22.2652 164.895 21.7443 167.949 21.7443C171.926 21.7443 175.595 22.786 178.957 24.8693C182.319 26.929 185.006 30.0421 187.018 34.2088C189.03 38.3518 190.037 43.5483 190.037 49.7983C190.037 55.8826 189.054 61.0199 187.089 65.2102C185.148 69.3769 182.496 72.5374 179.135 74.6918C175.797 76.8224 172.056 77.8878 167.913 77.8878C164.977 77.8878 162.48 77.4025 160.42 76.4318C158.384 75.4612 156.715 74.242 155.413 72.7741C154.111 71.2827 153.117 69.7794 152.43 68.2642H151.755V77H136.841ZM151.649 49.7273C151.649 52.9706 152.099 55.7997 152.998 58.2145C153.898 60.6293 155.2 62.5114 156.904 63.8608C158.609 65.1866 160.681 65.8494 163.119 65.8494C165.581 65.8494 167.664 65.1747 169.369 63.8253C171.074 62.4522 172.364 60.5582 173.24 58.1435C174.139 55.705 174.589 52.8996 174.589 49.7273C174.589 46.5786 174.151 43.8087 173.275 41.4176C172.399 39.0265 171.109 37.1562 169.404 35.8068C167.7 34.4574 165.605 33.7827 163.119 33.7827C160.657 33.7827 158.574 34.4337 156.869 35.7358C155.188 37.0379 153.898 38.8845 152.998 41.2756C152.099 43.6667 151.649 46.4839 151.649 49.7273ZM200.131 77V22.4545H215.259V77H200.131ZM207.73 15.4233C205.481 15.4233 203.552 14.6776 201.942 13.1861C200.356 11.6709 199.562 9.85985 199.562 7.75284C199.562 5.6695 200.356 3.8821 201.942 2.39062C203.552 0.875471 205.481 0.117894 207.73 0.117894C209.979 0.117894 211.897 0.875471 213.483 2.39062C215.093 3.8821 215.898 5.6695 215.898 7.75284C215.898 9.85985 215.093 11.6709 213.483 13.1861C211.897 14.6776 209.979 15.4233 207.73 15.4233ZM256.39 22.4545V33.8182H223.542V22.4545H256.39ZM230.999 9.38636H246.127V60.2386C246.127 61.6354 246.34 62.7244 246.766 63.5057C247.192 64.2633 247.784 64.7959 248.542 65.1037C249.323 65.4115 250.222 65.5653 251.24 65.5653C251.951 65.5653 252.661 65.5062 253.371 65.3878C254.081 65.2457 254.626 65.1392 255.005 65.0682L257.384 76.3253C256.626 76.562 255.561 76.8343 254.188 77.142C252.815 77.4735 251.146 77.6747 249.181 77.7457C245.535 77.8878 242.339 77.4025 239.593 76.2898C236.87 75.1771 234.751 73.4489 233.236 71.1051C231.721 68.7614 230.975 65.8021 230.999 62.2273V9.38636ZM281.798 78.0298C278.318 78.0298 275.217 77.4261 272.494 76.2188C269.771 74.9877 267.617 73.1766 266.031 70.7855C264.468 68.3707 263.687 65.3641 263.687 61.7656C263.687 58.7353 264.243 56.1903 265.356 54.1307C266.469 52.071 267.984 50.4138 269.902 49.1591C271.819 47.9044 273.997 46.9574 276.436 46.3182C278.898 45.679 281.478 45.2292 284.177 44.9688C287.35 44.6373 289.906 44.3295 291.848 44.0455C293.789 43.7377 295.198 43.2879 296.074 42.696C296.949 42.1042 297.387 41.2282 297.387 40.0682V39.8551C297.387 37.6061 296.677 35.866 295.257 34.6349C293.86 33.4039 291.871 32.7884 289.291 32.7884C286.568 32.7884 284.402 33.392 282.792 34.5994C281.182 35.7831 280.117 37.2746 279.596 39.0739L265.605 37.9375C266.315 34.6231 267.712 31.7585 269.795 29.3438C271.878 26.9053 274.565 25.035 277.856 23.733C281.171 22.4072 285.006 21.7443 289.362 21.7443C292.392 21.7443 295.292 22.0994 298.062 22.8097C300.856 23.5199 303.33 24.6207 305.484 26.1122C307.662 27.6037 309.378 29.5213 310.633 31.8651C311.888 34.1851 312.515 36.9669 312.515 40.2102V77H298.169V69.4361H297.743C296.867 71.1406 295.695 72.6439 294.227 73.946C292.759 75.2244 290.995 76.2306 288.936 76.9645C286.876 77.6747 284.497 78.0298 281.798 78.0298ZM286.13 67.5895C288.356 67.5895 290.321 67.1515 292.025 66.2756C293.73 65.3759 295.067 64.1686 296.038 62.6534C297.009 61.1383 297.494 59.4219 297.494 57.5043V51.7159C297.02 52.0237 296.369 52.3078 295.541 52.5682C294.736 52.8049 293.824 53.0298 292.806 53.2429C291.788 53.4323 290.77 53.6098 289.752 53.7756C288.734 53.9176 287.811 54.0478 286.983 54.1662C285.207 54.4266 283.656 54.8409 282.331 55.4091C281.005 55.9773 279.975 56.7467 279.241 57.7173C278.507 58.6643 278.14 59.848 278.14 61.2685C278.14 63.3281 278.886 64.9025 280.377 65.9915C281.893 67.0568 283.81 67.5895 286.13 67.5895ZM333.094 77.9233C330.75 77.9233 328.738 77.0947 327.057 75.4375C325.4 73.7566 324.571 71.7443 324.571 69.4006C324.571 67.0805 325.4 65.0919 327.057 63.4347C328.738 61.7775 330.75 60.9489 333.094 60.9489C335.367 60.9489 337.355 61.7775 339.06 63.4347C340.765 65.0919 341.617 67.0805 341.617 69.4006C341.617 70.9631 341.214 72.3954 340.409 73.6974C339.628 74.9759 338.598 76.0057 337.32 76.7869C336.042 77.5445 334.633 77.9233 333.094 77.9233Z" fill="url(#paint0_linear_52_741)"/>
</g>
<defs>  
<filter id="filter0_d_52_741" x="0.320801" y="0.11792" width="345.296" height="85.9475" filterUnits="userSpaceOnUse" color-interpolation-filters="sRGB">
<feFlood flood-opacity="0" result="BackgroundImageFix"/>
<feColorMatrix in="SourceAlpha" type="matrix" values="0 0 0 0 0 0 0 0 0 0 0 0 0 0 0 0 0 0 127 0" result="hardAlpha"/>
<feOffset dy="4"/>
<feGaussianBlur stdDeviation="2"/>
<feComposite in2="hardAlpha" operator="out"/>
<feColorMatrix type="matrix" values="0 0 0 0 0 0 0 0 0 0 0 0 0 0 0 0 0 0 0.25 0"/>
<feBlend mode="normal" in2="BackgroundImageFix" result="effect1_dropShadow_52_741"/>
<feBlend mode="normal" in="SourceGraphic" in2="effect1_dropShadow_52_741" result="shape"/>
</filter>
<linearGradient id="paint0_linear_52_741" x1="11.5155" y1="45" x2="354.67" y2="45" gradientUnits="userSpaceOnUse">
<stop stop-color="#D75071"/>
<stop offset="1" stop-color="#705BDC"/>
</linearGradient>
</defs>
</svg>
