<svg width="1237" height="231" viewBox="0 0 1237 231" fill="none" xmlns="http://www.w3.org/2000/svg">
<path d="M76.5825 227.229H0.711974V13.2025H77.2095C98.7375 13.2025 117.27 17.4872 132.806 26.0566C148.343 34.5564 160.291 46.7834 168.651 62.7379C177.081 78.6923 181.296 97.7818 181.296 120.007C181.296 142.301 177.081 161.46 168.651 177.484C160.291 193.508 148.273 205.805 132.597 214.374C116.991 222.944 98.3195 227.229 76.5825 227.229ZM45.9626 188.457H74.7014C88.078 188.457 99.3297 186.088 108.456 181.351C117.653 176.544 124.55 169.124 129.148 159.091C133.816 148.989 136.15 135.961 136.15 120.007C136.15 104.191 133.816 91.2677 129.148 81.2352C124.55 71.2027 117.688 63.8177 108.561 59.0802C99.4342 54.3426 88.1826 51.9739 74.8059 51.9739H45.9626V188.457ZM287.134 230.364C270.622 230.364 256.409 227.02 244.496 220.331C232.652 213.573 223.525 204.028 217.115 191.697C210.706 179.296 207.501 164.63 207.501 147.7C207.501 131.189 210.706 116.697 217.115 104.226C223.525 91.7554 232.547 82.0364 244.182 75.0694C255.887 68.1024 269.612 64.6189 285.357 64.6189C295.947 64.6189 305.805 66.3259 314.932 69.7397C324.128 73.0838 332.14 78.1349 338.968 84.8929C345.865 91.6509 351.23 100.151 355.062 110.392C358.894 120.564 360.81 132.477 360.81 146.133V158.36H225.267V130.771H318.903C318.903 124.361 317.51 118.683 314.723 113.736C311.936 108.79 308.069 104.923 303.123 102.136C298.246 99.2797 292.568 97.8515 286.089 97.8515C279.331 97.8515 273.339 99.4191 268.114 102.554C262.958 105.62 258.917 109.765 255.991 114.99C253.065 120.146 251.567 125.894 251.498 132.234V158.464C251.498 166.407 252.961 173.269 255.887 179.052C258.883 184.834 263.098 189.293 268.532 192.428C273.966 195.564 280.411 197.131 287.865 197.131C292.812 197.131 297.34 196.434 301.451 195.041C305.561 193.648 309.08 191.558 312.006 188.771C314.932 185.984 317.161 182.57 318.694 178.529L359.869 181.246C357.779 191.14 353.494 199.779 347.015 207.164C340.605 214.479 332.315 220.192 322.143 224.302C312.041 228.343 300.371 230.364 287.134 230.364ZM335.206 13.2025V37.3432H233.418V13.2025H335.206ZM390.698 227.229V13.2025H435.217V93.6713H436.576C438.526 89.3518 441.348 84.9626 445.041 80.5037C448.803 75.9751 453.68 72.213 459.671 69.2172C465.732 66.1517 473.257 64.6189 482.244 64.6189C493.949 64.6189 504.748 67.6844 514.641 73.8154C524.534 79.8767 532.441 89.0382 538.363 101.3C544.285 113.492 547.246 128.785 547.246 147.178C547.246 165.083 544.355 180.201 538.572 192.533C532.859 204.795 525.056 214.096 515.163 220.436C505.34 226.706 494.332 229.841 482.14 229.841C473.501 229.841 466.151 228.413 460.089 225.556C454.098 222.7 449.186 219.112 445.354 214.792C441.522 210.403 438.596 205.979 436.576 201.52H434.59V227.229H390.698ZM434.277 146.969C434.277 156.514 435.6 164.839 438.248 171.945C440.895 179.052 444.727 184.591 449.743 188.562C454.759 192.463 460.856 194.414 468.032 194.414C475.277 194.414 481.408 192.428 486.424 188.457C491.441 184.416 495.238 178.843 497.815 171.736C500.463 164.56 501.787 156.305 501.787 146.969C501.787 137.703 500.498 129.551 497.92 122.515C495.342 115.478 491.545 109.974 486.529 106.003C481.513 102.032 475.347 100.046 468.032 100.046C460.786 100.046 454.655 101.962 449.639 105.794C444.692 109.626 440.895 115.06 438.248 122.097C435.6 129.133 434.277 137.424 434.277 146.969ZM576.952 227.229V66.709H621.471V227.229H576.952ZM599.316 46.0171C592.697 46.0171 587.019 43.8225 582.282 39.4333C577.614 34.9744 575.28 29.6446 575.28 23.444C575.28 17.3131 577.614 12.053 582.282 7.66379C587.019 3.20491 592.697 0.975467 599.316 0.975467C605.934 0.975467 611.578 3.20491 616.246 7.66379C620.983 12.053 623.352 17.3131 623.352 23.444C623.352 29.6446 620.983 34.9744 616.246 39.4333C611.578 43.8225 605.934 46.0171 599.316 46.0171ZM742.514 66.709V100.151H645.847V66.709H742.514ZM667.793 28.2512H712.312V177.902C712.312 182.013 712.939 185.218 714.193 187.517C715.447 189.746 717.189 191.314 719.418 192.219C721.717 193.125 724.365 193.578 727.36 193.578C729.451 193.578 731.541 193.404 733.631 193.055C735.721 192.637 737.323 192.324 738.438 192.115L745.44 225.243C743.21 225.94 740.075 226.741 736.034 227.647C731.994 228.622 727.082 229.214 721.299 229.423C710.57 229.841 701.165 228.413 693.083 225.138C685.071 221.864 678.835 216.778 674.377 209.881C669.918 202.983 667.723 194.275 667.793 183.754V28.2512ZM817.287 230.259C807.045 230.259 797.919 228.483 789.907 224.929C781.895 221.307 775.555 215.977 770.887 208.94C766.289 201.834 763.989 192.986 763.989 182.396C763.989 173.478 765.627 165.989 768.901 159.927C772.176 153.866 776.634 148.989 782.278 145.297C787.921 141.604 794.331 138.817 801.507 136.936C808.752 135.055 816.346 133.731 824.289 132.965C833.624 131.99 841.149 131.084 846.862 130.248C852.575 129.342 856.72 128.019 859.298 126.277C861.876 124.535 863.165 121.957 863.165 118.543V117.916C863.165 111.298 861.074 106.177 856.894 102.554C852.784 98.9314 846.931 97.1199 839.337 97.1199C831.325 97.1199 824.951 98.8965 820.213 102.45C815.475 105.933 812.34 110.322 810.808 115.617L769.633 112.273C771.723 102.519 775.833 94.0893 781.964 86.983C788.095 79.807 796.003 74.303 805.687 70.4712C815.441 66.5697 826.727 64.6189 839.546 64.6189C848.464 64.6189 856.999 65.664 865.15 67.7541C873.371 69.8442 880.652 73.0838 886.992 77.473C893.401 81.8622 898.452 87.5055 902.145 94.4028C905.837 101.23 907.684 109.417 907.684 118.961V227.229H865.464V204.969H864.21C861.632 209.985 858.183 214.409 853.864 218.241C849.544 222.003 844.354 224.964 838.292 227.124C832.231 229.214 825.229 230.259 817.287 230.259ZM830.036 199.535C836.585 199.535 842.368 198.246 847.384 195.668C852.401 193.021 856.337 189.467 859.193 185.009C862.05 180.55 863.478 175.499 863.478 169.855V152.821C862.085 153.727 860.169 154.563 857.73 155.329C855.361 156.026 852.679 156.688 849.683 157.315C846.688 157.872 843.692 158.395 840.696 158.882C837.7 159.3 834.983 159.684 832.545 160.032C827.319 160.798 822.756 162.017 818.854 163.69C814.953 165.362 811.922 167.626 809.763 170.482C807.603 173.269 806.523 176.753 806.523 180.933C806.523 186.994 808.717 191.627 813.107 194.832C817.566 197.967 823.209 199.535 830.036 199.535ZM1112.04 112.683L1071.99 227.229H1036.19L996.147 112.683H1029.71L1053.49 194.64H1054.69L1078.4 112.683H1112.04ZM1127.99 227.229V203.961L1182.36 153.624C1186.98 149.15 1190.86 145.123 1193.99 141.543C1197.17 137.964 1199.58 134.459 1201.23 131.028C1202.87 127.548 1203.69 123.795 1203.69 119.768C1203.69 115.293 1202.67 111.44 1200.63 108.209C1198.59 104.927 1195.81 102.417 1192.28 100.677C1188.75 98.8869 1184.74 97.992 1180.27 97.992C1175.6 97.992 1171.52 98.9366 1168.04 100.826C1164.56 102.715 1161.88 105.425 1159.99 108.954C1158.1 112.484 1157.15 116.685 1157.15 121.557H1126.5C1126.5 111.564 1128.76 102.889 1133.29 95.5311C1137.81 88.1731 1144.15 82.4806 1152.3 78.4536C1160.46 74.4267 1169.85 72.4132 1180.49 72.4132C1191.43 72.4132 1200.95 74.3521 1209.06 78.2299C1217.21 82.0581 1223.55 87.3777 1228.07 94.1887C1232.6 101 1234.86 108.805 1234.86 117.605C1234.86 123.372 1233.71 129.064 1231.43 134.682C1229.19 140.3 1225.19 146.54 1219.42 153.4C1213.65 160.211 1205.53 168.39 1195.04 177.935L1172.74 199.785V200.829H1236.87V227.229H1127.99Z" fill="url(#paint0_linear_1546_2)"/>
<defs>
<linearGradient id="paint0_linear_1546_2" x1="40.732" y1="120.229" x2="1261.05" y2="120.229" gradientUnits="userSpaceOnUse">
<stop stop-color="#D75071"/>
<stop offset="1" stop-color="#705BDC"/>
</linearGradient>
</defs>
</svg>
